<svg width="268" height="80" viewBox="0 0 268 80" fill="none" xmlns="http://www.w3.org/2000/svg">
<path d="M0 0H58C72 0 82 10 82 24C82 38 72 48 58 48H36H32.5L18 80H0V0ZM18 13V36H56C61 36 64 34.5 64 25.5C64 16.5 61 13 56 13H18Z" fill="#BF00EF"/>
<path opacity="0.9" d="M30 20H50V30H30V20Z" fill="#BF36FF"/>
<path d="M100.54 60V19.2727H116.608C119.697 19.2727 122.329 19.8627 124.503 21.0426C126.677 22.2093 128.334 23.8333 129.474 25.9148C130.628 27.983 131.205 30.3693 131.205 33.0739C131.205 35.7784 130.621 38.1648 129.455 40.233C128.288 42.3011 126.598 43.9119 124.384 45.0653C122.183 46.2187 119.518 46.7955 116.389 46.7955H106.148V39.8949H114.997C116.654 39.8949 118.02 39.6098 119.094 39.0398C120.181 38.4564 120.99 37.6544 121.52 36.6335C122.063 35.5994 122.335 34.4129 122.335 33.0739C122.335 31.7216 122.063 30.5417 121.52 29.5341C120.99 28.5133 120.181 27.7244 119.094 27.1676C118.007 26.5975 116.628 26.3125 114.957 26.3125H109.151V60H100.54ZM149.947 60.5966C146.858 60.5966 144.187 59.9403 141.933 58.6278C139.693 57.3021 137.963 55.4593 136.743 53.0994C135.523 50.7263 134.913 47.9754 134.913 44.8466C134.913 41.6913 135.523 38.9337 136.743 36.5739C137.963 34.2008 139.693 32.358 141.933 31.0455C144.187 29.7197 146.858 29.0568 149.947 29.0568C153.036 29.0568 155.701 29.7197 157.942 31.0455C160.196 32.358 161.932 34.2008 163.152 36.5739C164.372 38.9337 164.982 41.6913 164.982 44.8466C164.982 47.9754 164.372 50.7263 163.152 53.0994C161.932 55.4593 160.196 57.3021 157.942 58.6278C155.701 59.9403 153.036 60.5966 149.947 60.5966ZM149.987 54.0341C151.393 54.0341 152.566 53.6364 153.507 52.8409C154.448 52.0322 155.158 50.9318 155.635 49.5398C156.125 48.1477 156.371 46.5634 156.371 44.7869C156.371 43.0104 156.125 41.4261 155.635 40.0341C155.158 38.642 154.448 37.5417 153.507 36.733C152.566 35.9242 151.393 35.5199 149.987 35.5199C148.569 35.5199 147.375 35.9242 146.408 36.733C145.453 37.5417 144.731 38.642 144.24 40.0341C143.763 41.4261 143.524 43.0104 143.524 44.7869C143.524 46.5634 143.763 48.1477 144.24 49.5398C144.731 50.9318 145.453 52.0322 146.408 52.8409C147.375 53.6364 148.569 54.0341 149.987 54.0341ZM178.962 19.2727V60H170.49V19.2727H178.962ZM194.219 19.2727V60H185.748V19.2727H194.219ZM201.006 60V29.4545H209.477V60H201.006ZM205.261 25.517C204.002 25.517 202.921 25.0994 202.02 24.2642C201.132 23.4157 200.688 22.4015 200.688 21.2216C200.688 20.0549 201.132 19.054 202.02 18.2188C202.921 17.3703 204.002 16.946 205.261 16.946C206.521 16.946 207.595 17.3703 208.483 18.2188C209.384 19.054 209.835 20.0549 209.835 21.2216C209.835 22.4015 209.384 23.4157 208.483 24.2642C207.595 25.0994 206.521 25.517 205.261 25.517ZM232.69 29.4545V35.8182H213.837V29.4545H232.69ZM218.153 60V27.2472C218.153 25.0331 218.584 23.197 219.445 21.7386C220.32 20.2803 221.513 19.1866 223.025 18.4574C224.536 17.7282 226.253 17.3636 228.175 17.3636C229.475 17.3636 230.661 17.4631 231.735 17.6619C232.822 17.8608 233.631 18.0398 234.161 18.1989L232.65 24.5625C232.318 24.4564 231.907 24.357 231.417 24.2642C230.94 24.1714 230.449 24.125 229.945 24.125C228.699 24.125 227.831 24.4167 227.34 25C226.85 25.5701 226.604 26.3722 226.604 27.4062V60H218.153ZM243.095 71.4545C242.021 71.4545 241.014 71.3684 240.072 71.196C239.144 71.0369 238.375 70.8314 237.766 70.5795L239.675 64.2557C240.669 64.5606 241.564 64.7263 242.359 64.7528C243.168 64.7794 243.864 64.5938 244.447 64.196C245.044 63.7983 245.528 63.1222 245.899 62.1676L246.396 60.875L235.439 29.4545H244.348L250.672 51.8864H250.99L257.374 29.4545H266.342L254.47 63.3011C253.9 64.9451 253.125 66.3769 252.143 67.5966C251.176 68.8295 249.949 69.7775 248.464 70.4403C246.98 71.1165 245.19 71.4545 243.095 71.4545Z" fill="#211C1C"/>
</svg>
