<svg width="166" height="55" viewBox="0 0 166 55" fill="none" xmlns="http://www.w3.org/2000/svg">
<path d="M-0.000266373 43.054V2.32668H16.0679C19.1569 2.32668 21.7886 2.91664 23.9628 4.09657C26.137 5.26323 27.7942 6.88729 28.9344 8.96873C30.0878 11.0369 30.6645 13.4233 30.6645 16.1278C30.6645 18.8324 30.0812 21.2187 28.9145 23.2869C27.7478 25.3551 26.0575 26.9659 23.8435 28.1193C21.6427 29.2727 18.978 29.8494 15.8492 29.8494H5.60769V22.9488H14.4571C16.1143 22.9488 17.4798 22.6638 18.5537 22.0937C19.6408 21.5104 20.4495 20.7083 20.9798 19.6875C21.5234 18.6534 21.7952 17.4668 21.7952 16.1278C21.7952 14.7755 21.5234 13.5956 20.9798 12.588C20.4495 11.5672 19.6408 10.7784 18.5537 10.2216C17.4666 9.65149 16.0878 9.36646 14.4173 9.36646H8.61053V43.054H-0.000266373ZM49.4074 43.6505C46.3184 43.6505 43.647 42.9943 41.3932 41.6818C39.1527 40.356 37.4226 38.5132 36.2029 36.1534C34.9832 33.7803 34.3733 31.0293 34.3733 27.9005C34.3733 24.7452 34.9832 21.9877 36.2029 19.6278C37.4226 17.2547 39.1527 15.4119 41.3932 14.0994C43.647 12.7737 46.3184 12.1108 49.4074 12.1108C52.4964 12.1108 55.1612 12.7737 57.4017 14.0994C59.6555 15.4119 61.3923 17.2547 62.6119 19.6278C63.8316 21.9877 64.4415 24.7452 64.4415 27.9005C64.4415 31.0293 63.8316 33.7803 62.6119 36.1534C61.3923 38.5132 59.6555 40.356 57.4017 41.6818C55.1612 42.9943 52.4964 43.6505 49.4074 43.6505ZM49.4472 37.088C50.8525 37.088 52.0258 36.6903 52.9671 35.8949C53.9084 35.0862 54.6176 33.9858 55.0949 32.5937C55.5854 31.2017 55.8307 29.6174 55.8307 27.8409C55.8307 26.0644 55.5854 24.4801 55.0949 23.088C54.6176 21.696 53.9084 20.5956 52.9671 19.7869C52.0258 18.9782 50.8525 18.5738 49.4472 18.5738C48.0286 18.5738 46.8354 18.9782 45.8676 19.7869C44.9131 20.5956 44.1905 21.696 43.7 23.088C43.2227 24.4801 42.9841 26.0644 42.9841 27.8409C42.9841 29.6174 43.2227 31.2017 43.7 32.5937C44.1905 33.9858 44.9131 35.0862 45.8676 35.8949C46.8354 36.6903 48.0286 37.088 49.4472 37.088ZM78.4216 2.32668V43.054H69.95V2.32668H78.4216ZM93.6794 2.32668V43.054H85.2078V2.32668H93.6794ZM100.466 43.054V12.5085H108.937V43.054H100.466ZM104.721 8.571C103.462 8.571 102.381 8.15339 101.48 7.31816C100.592 6.46967 100.147 5.45547 100.147 4.27554C100.147 3.10888 100.592 2.10793 101.48 1.27271C102.381 0.424219 103.462 -2.43187e-05 104.721 -2.43187e-05C105.981 -2.43187e-05 107.055 0.424219 107.943 1.27271C108.844 2.10793 109.295 3.10888 109.295 4.27554C109.295 5.45547 108.844 6.46967 107.943 7.31816C107.055 8.15339 105.981 8.571 104.721 8.571ZM132.15 12.5085V18.8721H113.297V12.5085H132.15ZM117.613 43.054V10.3011C117.613 8.0871 118.044 6.25092 118.905 4.79259C119.78 3.33426 120.973 2.24051 122.485 1.51134C123.996 0.782172 125.713 0.417589 127.635 0.417589C128.935 0.417589 130.121 0.517021 131.195 0.715887C132.282 0.91475 133.091 1.09373 133.621 1.25282L132.11 7.61646C131.778 7.51039 131.367 7.41096 130.877 7.31816C130.4 7.22536 129.909 7.17896 129.405 7.17896C128.159 7.17896 127.291 7.47062 126.8 8.05396C126.31 8.62403 126.064 9.42611 126.064 10.4602V43.054H117.613ZM142.555 54.5085C141.481 54.5085 140.474 54.4223 139.532 54.25C138.604 54.0909 137.835 53.8854 137.226 53.6335L139.135 47.3096C140.129 47.6146 141.024 47.7803 141.819 47.8068C142.628 47.8333 143.324 47.6477 143.907 47.25C144.504 46.8523 144.988 46.1761 145.359 45.2216L145.856 43.929L134.899 12.5085H143.808L150.132 34.9403H150.45L156.834 12.5085H165.802L153.93 46.3551C153.36 47.999 152.584 49.4308 151.603 50.6505C150.636 51.8835 149.409 52.8314 147.924 53.4943C146.44 54.1704 144.65 54.5085 142.555 54.5085Z" fill="#211C1C"/>
</svg>
